<svg width="200" height="200" viewBox="0 0 200 200" fill="none" xmlns="http://www.w3.org/2000/svg">
  <!-- Background Circle -->
  <circle cx="100" cy="100" r="95" fill="#10B981" opacity="0.1"/>
  
  <!-- Shopping Cart -->
  <g transform="translate(50, 60)">
    <!-- Cart Body -->
    <path d="M20 40 L20 80 L80 80 L80 40 Z" fill="#10B981" stroke="#059669" stroke-width="3" stroke-linecap="round" stroke-linejoin="round"/>
    
    <!-- Cart Handle -->
    <path d="M20 40 L15 30 M80 40 L85 30" stroke="#059669" stroke-width="3" stroke-linecap="round"/>
    
    <!-- Cart Wheels -->
    <circle cx="30" cy="85" r="5" fill="#059669"/>
    <circle cx="70" cy="85" r="5" fill="#059669"/>
    
    <!-- Fresh Produce Icons -->
    <!-- Apple -->
    <circle cx="35" cy="55" r="8" fill="#EF4444" opacity="0.9"/>
    <path d="M35 47 L33 45 L35 43 L37 45 Z" fill="#22C55E" stroke="#16A34A" stroke-width="1"/>
    
    <!-- Orange -->
    <circle cx="55" cy="50" r="7" fill="#F97316" opacity="0.9"/>
    <path d="M55 43 L53 41 L55 39 L57 41 Z" fill="#22C55E" stroke="#16A34A" stroke-width="1"/>
    
    <!-- Leaf -->
    <path d="M65 48 Q70 45 72 50 Q70 55 65 52 Q60 55 58 50 Q60 45 65 48" fill="#22C55E" opacity="0.9"/>
  </g>
  
  <!-- Brand Text -->
  <text x="100" y="150" font-family="Poppins, sans-serif" font-size="24" font-weight="700" fill="#059669" text-anchor="middle">Shooshka</text>
  <text x="100" y="175" font-family="Poppins, sans-serif" font-size="18" font-weight="600" fill="#10B981" text-anchor="middle">Grocery</text>
</svg>

